# xmcd
#
# Track frame offsets: 
#        150
#        22610
#        40027
#        56832
#        71867
#        89975
#        102175
#        117212
#        143292
#        156480
#
# Disc length: 2352 seconds
#
# Revision: 0
# Processed by: cddbd v1.5.1PL0 Copyright (c) Steve Scherf et al.
# Submitted via: ExactAudioCopy v0.90b4
#
DISCID=83092e0a
DTITLE=Charles Johnson and The Revivers - I Believe
DYEAR=1995
DGENRE=Gospel
TTITLE0=Reach Out With Love
TTITLE1=His Prayer Was Too Late
TTITLE2=Go Feed My People
TTITLE3=We Are The Ones
TTITLE4=There Is A Guarantee In Jesus
TTITLE5=Sisters And Brothers
TTITLE6=I Believe
TTITLE7=I Must Tell The Truth
TTITLE8=You, I And Everyone
TTITLE9=I Won't Have To Cross It Alone
EXTD=
EXTT0=
EXTT1=
EXTT2=
EXTT3=
EXTT4=
EXTT5=
EXTT6=
EXTT7=
EXTT8=
EXTT9=
PLAYORDER=
